<?xml version="1.0" encoding="UTF-8" standalone="no"?>
<!DOCTYPE svg PUBLIC "-//W3C//DTD SVG 1.1//EN" "http://www.w3.org/Graphics/SVG/1.1/DTD/svg11.dtd">
<svg width="100%" height="100%" viewBox="0 0 74 72" version="1.1" xmlns="http://www.w3.org/2000/svg" xmlns:xlink="http://www.w3.org/1999/xlink" xml:space="preserve" xmlns:serif="http://www.serif.com/" style="fill-rule:evenodd;clip-rule:evenodd;stroke-miterlimit:10;">
    <path d="M49.912,51.117C49.912,51.117 49.655,51.319 49.482,51.423C48.44,52.051 47.337,51.911 46.999,51.074C41.859,38.394 34.049,27.606 23.857,18.914C23.223,18.374 23.357,17.182 24.245,16.339C25.088,15.499 26.339,15.219 27.022,15.801C37.505,24.742 45.476,35.836 50.777,48.821C51.06,49.527 50.679,50.465 49.916,51.161L49.912,51.117Z" style="fill:rgb(43,122,120);fill-rule:nonzero;stroke:rgb(43,122,120);stroke-width:0.83px;"/>
    <path d="M64.63,34.917C64.63,34.917 64.412,35.025 64.321,35.032C63.168,35.396 62.048,35.03 61.841,34.138L56.122,8.962C55.915,8.069 56.699,7.053 57.852,6.689C59.006,6.325 60.126,6.691 60.333,7.584L66.052,32.76C66.252,33.562 65.596,34.477 64.631,34.917L64.63,34.917Z" style="fill:rgb(43,122,120);fill-rule:nonzero;stroke:rgb(43,122,120);stroke-width:0.85px;"/>
    <path d="M33.29,61.476C33.29,61.476 33.213,61.663 33.13,61.761C32.534,62.853 31.523,63.296 30.806,62.853L10.876,48.888C10.201,48.396 10.101,47.132 10.651,46.043C11.247,44.951 12.258,44.507 12.975,44.95L32.954,58.958C33.581,59.408 33.712,60.488 33.289,61.476L33.29,61.476Z" style="fill:rgb(43,122,120);fill-rule:nonzero;stroke:rgb(43,122,120);stroke-width:0.82px;"/>
</svg>
