<?xml version="1.0" encoding="UTF-8" standalone="no"?>
<!DOCTYPE svg PUBLIC "-//W3C//DTD SVG 1.1//EN" "http://www.w3.org/Graphics/SVG/1.1/DTD/svg11.dtd">
<svg width="100%" height="100%" viewBox="0 0 152 147" version="1.1" xmlns="http://www.w3.org/2000/svg" xmlns:xlink="http://www.w3.org/1999/xlink" xml:space="preserve" xmlns:serif="http://www.serif.com/" style="fill-rule:evenodd;clip-rule:evenodd;stroke-linejoin:round;stroke-miterlimit:2;">
    <g>
        <clipPath id="_clip1">
            <path d="M18.323,-0L151.954,19.176L133.631,146.868L-0,127.692L18.323,-0Z"/>
        </clipPath>
        <g clip-path="url(#_clip1)">
            <path d="M131.526,146.566C130.752,146.455 130.04,145.915 129.807,145.094C124.931,129.564 109.214,117.772 91.959,114.552C88.611,125.052 80.37,134.194 68.707,134.183C64.631,134.167 61.01,132.816 58.843,130.493C55.542,126.913 55.666,121.156 59.191,117.068C61.666,114.186 65.509,112.157 71.003,110.845C76.817,109.448 82.87,109.136 88.775,109.852C88.855,109.295 88.984,108.701 89.021,108.137C91.174,92.523 84.825,76.257 72.477,65.735C65.947,60.205 57.809,56.412 49.332,54.671C47.212,58.741 44.682,62.621 41.833,66.281C38.658,70.375 34.139,75.283 27.515,77.132C21.21,78.896 12.635,76.922 9.74,70.512C8.586,67.854 8.612,64.926 9.846,62.129C11.898,57.611 17.234,53.433 23.477,51.486C30.869,49.178 38.917,48.714 46.945,49.91C53.167,36.804 55.412,22.077 53.127,7.75C52.943,6.586 53.753,5.522 54.877,5.333C56.018,5.16 57.104,5.942 57.3,7.08C59.647,21.897 57.463,37.113 51.26,50.703C60.05,52.708 68.464,56.715 75.227,62.454C88.675,73.878 95.6,91.627 93.244,108.656L92.992,110.413C111.64,114.008 128.609,126.855 133.859,143.751C134.227,144.853 133.57,146.071 132.471,146.395C132.152,146.48 131.839,146.523 131.538,146.48L131.526,146.566ZM87.62,113.93C82.39,113.398 77.08,113.73 71.99,114.968C67.405,116.06 64.28,117.667 62.431,119.852C60.638,121.957 59.962,125.447 61.975,127.617C63.343,129.082 65.805,129.96 68.702,129.939C77.91,129.948 84.682,122.476 87.662,113.936L87.62,113.93ZM44.918,53.95C38.068,53.098 31.107,53.63 24.728,55.602C19.682,57.153 15.255,60.499 13.713,63.909C12.939,65.635 12.933,67.209 13.62,68.839C15.485,72.956 21.813,74.389 26.338,73.113C31.734,71.569 35.639,67.273 38.433,63.693C40.847,60.628 42.983,57.347 44.869,53.987L44.919,53.95L44.918,53.95Z" style="fill:rgb(43,122,120);fill-rule:nonzero;"/>
        </g>
    </g>
</svg>
